<?xml version="1.0" standalone="no"?>
<!DOCTYPE svg PUBLIC "-//W3C//DTD SVG 20010904//EN"
 "http://www.w3.org/TR/2001/REC-SVG-20010904/DTD/svg10.dtd">
<svg version="1.0" xmlns="http://www.w3.org/2000/svg"
 width="700.000000pt" height="700.000000pt" viewBox="0 0 700.000000 700.000000"
 preserveAspectRatio="xMidYMid meet">
<metadata>
Created by potrace 1.14, written by Peter Selinger 2001-2017
</metadata>
<g transform="translate(0.000000,700.000000) scale(0.100000,-0.100000)"
fill="#000000" stroke="none">
<path d="M3405 6968 c-8 -18 -35 -87 -60 -153 -25 -66 -50 -128 -55 -137 -6
-10 -10 -23 -10 -30 -1 -7 -9 -31 -20 -53 -11 -22 -19 -44 -20 -49 0 -5 -15
-47 -34 -95 -19 -47 -50 -126 -69 -176 -19 -49 -74 -191 -122 -315 -48 -124
-98 -252 -110 -285 -12 -33 -66 -172 -120 -310 -53 -137 -109 -284 -125 -325
-15 -41 -64 -167 -107 -280 -180 -462 -203 -523 -199 -527 2 -2 57 22 122 55
114 56 119 60 134 103 9 24 20 53 25 64 4 11 23 58 41 105 18 47 64 168 104
270 39 102 83 217 97 255 15 39 30 74 35 79 4 6 8 16 8 24 0 8 6 28 14 45 15
32 81 202 136 347 15 41 33 89 40 105 l12 30 14 -40 c8 -22 18 -49 23 -60 5
-11 28 -74 51 -140 23 -66 46 -129 50 -140 5 -11 50 -135 101 -275 50 -140 94
-262 98 -271 7 -20 -30 -36 436 191 187 91 364 177 393 190 28 14 52 27 52 30
0 6 -342 857 -360 895 -8 19 -113 278 -265 655 -36 91 -72 179 -80 197 -8 17
-15 36 -15 42 0 7 -34 11 -100 11 l-100 0 -15 -32z"/>
<path d="M4460 4297 c-91 -44 -283 -138 -427 -208 -145 -71 -263 -133 -263
-139 0 -11 4 -23 140 -400 51 -140 109 -302 130 -360 21 -58 50 -136 64 -175
14 -38 23 -72 20 -75 -5 -5 -2074 -8 -2074 -3 0 2 18 48 40 103 22 55 40 102
40 105 0 4 -116 -51 -200 -95 -38 -20 -48 -40 -129 -250 -69 -181 -262 -680
-405 -1050 -76 -195 -158 -407 -182 -470 -25 -63 -67 -171 -94 -240 -27 -69
-63 -165 -80 -215 -91 -261 -267 -468 -509 -598 -35 -19 -175 -76 -201 -82 -8
-1 -33 -8 -55 -14 -49 -13 -118 -21 -205 -25 l-65 -3 -3 -52 -3 -51 949 0 948
0 1 50 c1 32 -3 50 -10 50 -7 1 -73 3 -147 4 -167 5 -249 29 -350 105 -66 50
-137 144 -146 194 -1 7 -6 31 -12 54 -21 90 0 277 47 413 25 73 384 1036 410
1102 5 13 55 147 111 298 56 151 106 284 111 295 5 11 22 56 38 100 l29 80
1100 3 1100 2 12 -32 c7 -18 18 -46 25 -63 7 -16 111 -273 230 -570 120 -297
276 -684 347 -860 164 -404 200 -522 201 -665 2 -98 0 -109 -29 -170 -17 -36
-51 -85 -75 -109 -42 -42 -175 -114 -229 -125 -14 -2 -45 -9 -70 -15 -25 -5
-46 -10 -47 -10 -2 -1 -59 -1 -128 -1 l-125 0 0 -50 0 -50 1355 0 1355 0 0 50
0 50 -87 1 c-161 1 -263 24 -403 91 -68 33 -100 56 -162 119 -144 148 -265
344 -337 549 -18 52 -39 109 -47 125 -7 17 -43 107 -80 200 -130 332 -213 545
-353 905 -78 201 -146 374 -152 385 -5 11 -72 182 -149 380 -77 198 -144 369
-149 380 -8 17 -211 535 -261 665 -109 286 -177 450 -185 449 -5 0 -84 -37
-175 -82z"/>
</g>
</svg>
