<svg xmlns="http://www.w3.org/2000/svg" viewBox="0 0 30 30">
  <defs>
    <style>
      .cls-1 {
        fill: #1f1f1f;
      }
    </style>
  </defs>
  <g id="レイヤー_2" data-name="レイヤー 2">
    <g id="レイヤー_1-2" data-name="レイヤー 1">
      <g>
        <path class="cls-1" d="M29,30a1,1,0,0,1-.71-.29l-28-28A1,1,0,0,1,1.71.29l28,28a1,1,0,0,1,0,1.42A1,1,0,0,1,29,30Z"/>
        <path class="cls-1" d="M1,30a1,1,0,0,1-.71-.29,1,1,0,0,1,0-1.42l28-28a1,1,0,1,1,1.42,1.42l-28,28A1,1,0,0,1,1,30Z"/>
      </g>
    </g>
  </g>
</svg>
