<svg xmlns="http://www.w3.org/2000/svg" xmlns:xlink="http://www.w3.org/1999/xlink" viewBox="0 0 313.33 407">
  <defs>
    <style>
      .cls-1, .cls-3 {
        fill: none;
      }

      .cls-2 {
        clip-path: url(#clip-path);
      }

      .cls-3 {
        stroke: #1f1f1f;
        stroke-miterlimit: 10;
        stroke-width: 2px;
      }

      .cls-4 {
        font-size: 48px;
        font-family: ToppanBunkyuMidashiMinchoStdN-ExtraBold-83pv-RKSJ-H, Toppan Bunkyu Midashi Mincho;
      }
    </style>
    <clipPath id="clip-path">
      <rect class="cls-1" x="58" y="112" width="173.61" height="263.75"/>
    </clipPath>
  </defs>
  <g id="レイヤー_2" data-name="レイヤー 2">
    <g id="レイヤー_1-2" data-name="レイヤー 1">
      <g>
        <g id="アートワーク_162" data-name="アートワーク 162">
          <g class="cls-2">
            <path class="cls-3" d="M162.14,132.83c-.07,0-.09-.12,0-.12h0s0,0,0,0a7.5,7.5,0,0,1,4.4,0,9.26,9.26,0,0,1,1.78,1,5.21,5.21,0,0,0-.83,2.35,2.34,2.34,0,0,0,.41,1.23,2.57,2.57,0,0,1,1.15,1.42,4,4,0,0,1,.52,1,5.91,5.91,0,0,0,1.14,1.3c.16.14.32.34.49.52l1,.7,0,0a3.2,3.2,0,0,1,.47.43,1,1,0,0,1,.65.59.4.4,0,0,1,.22.12.9.9,0,0,1,.09,1,.69.69,0,0,1-.19.37c-.11.2-.23.39-.34.58a.69.69,0,0,0,0,.13,2,2,0,0,0,0,1.86,12.83,12.83,0,0,0,.76,1.29,9.83,9.83,0,0,0,.91.8,2.09,2.09,0,0,1,.87,1,2.77,2.77,0,0,1-.63,2.2.06.06,0,0,1,0,0,1.23,1.23,0,0,0-.29.74c0,.63.62,1,.92,1.47a.16.16,0,0,0,.1,0,2.47,2.47,0,0,1-.71,1.36,4,4,0,0,1,1.1,2.17.36.36,0,0,1,0,.18,2.07,2.07,0,0,0-1,.86,1.08,1.08,0,0,0-.18.11,19,19,0,0,0-1.29,2.33,14,14,0,0,1-1,2.37,5.72,5.72,0,0,1-1.46,1.62.05.05,0,0,0,0,0s0,0,0,.06a2.48,2.48,0,0,1-1,1.11.57.57,0,0,1-.33.06,6,6,0,0,1-.58.25c-1.27.45-3,.09-4.3.53l-.13,0s0,0,0,0a4.38,4.38,0,0,1-1.54,2.21,7.89,7.89,0,0,0-1.11.87,3.84,3.84,0,0,1-.14.36c.15.23.28.48.42.71,1.2,1.47,2.78,2.64,3.29,4.53,0,.08,0,.15.05.23l4.07,2.47a6.7,6.7,0,0,0,3.25,2l5.06,3.07.19-.22.38,0,.46,0H180l.08,0-.07,0a.77.77,0,0,1,.29.17,5.7,5.7,0,0,1,1.78-1.6l.09-.06.52-.2s.08-.1,0-.07l-.29.12A2.77,2.77,0,0,1,184,182a3.49,3.49,0,0,1,2.41,1.3,2.89,2.89,0,0,1,1.1.11.65.65,0,0,1,.34,0,10.4,10.4,0,0,1,2.52,1,1.18,1.18,0,0,1,.66,1.23,2.19,2.19,0,0,1,1.21.45l.88.39c0,.09,0,.18,0,.28l0,0a3.44,3.44,0,0,1,.56,1.4,15.22,15.22,0,0,0,.57,1.46.77.77,0,0,1,.06.24,8.06,8.06,0,0,1,1.25.29l.22.15a2.91,2.91,0,0,1,.33.26c.32.26.62.52.9.73a.64.64,0,0,1,.23.58,1.87,1.87,0,0,0,0,.25,2.66,2.66,0,0,1,0,.69,2.11,2.11,0,0,1-.11.83,12.93,12.93,0,0,1-.31,1.88.64.64,0,0,1-.08.14l.25.15c-.44,1.6,1.85,2,3,2.29,3.21.88,5,3.44,7.69,5.21,3.29,2.18,7.32,3.59,10.77,5.55l.61.35.55.33c3.39,2.17,6.76,4.37,10.16,6.53.1.07.27,0,.45-.09l.63.39c.22,0,.36.17.3.51a9.25,9.25,0,0,1-.66,2l0,0-.14.19a5.05,5.05,0,0,1-1,1.45l-.79,1.11-.89-.55-12.16-7.37-.71-.41-2.17-1.46-1-.65c-1-.66-2-1.3-3.07-1.92-2.54-1.51-5-3.18-7.5-4.7-1.11-.67-2.23-1.39-3.4-2l-.4-.2a8.26,8.26,0,0,0-.82-.33c-.22-.09-.44-.19-.66-.26a2.43,2.43,0,0,1-.25-.2l-2.73-1.65a.72.72,0,0,1-.24.5l-.26.21a6.5,6.5,0,0,1-2.66,2.84,7.43,7.43,0,0,1-1.74.49l-.31.25-.79.69-.78.71-.44.79c-1.05,1.84-2,3.72-3.07,5.59-.14.27-.29.53-.44.79-.56,1-1.14,2-1.75,3-.34.54-.67,1.09-1,1.64-1.14,1.87-2.26,3.74-3.41,5.6-.21.35-.42.7-.64,1-.65,1-1.32,2.08-2,3.1-.34.5-.72,1-1.11,1.46l-.31.35c-.65.76-1.33,1.5-2,2.26l-.16.18c-.21.25-.4.5-.6.75s-.42.49-.61.75a15.08,15.08,0,0,0-1.06,1.36,6.32,6.32,0,0,0-1.27,1.48v-.13c-.41.49-.82,1-1.26,1.41,0,1.34,0,2.69,0,4-.21.77-.39,1.55-.58,2.33l-.39,1.68c-.27.56-.51,1.13-.73,1.71l-.12.36c-.17.48-.34.95-.48,1.43s-.24.83-.34,1.25h0c-.15.59-.27,1.19-.37,1.79l0,.11a.22.22,0,0,0,0,.08c0,.24-.08.48-.11.72s0,.27,0,.4a10.37,10.37,0,0,0-1,5.2q0,.36,0,.72a.59.59,0,0,0,.14.06,5.67,5.67,0,0,0,.65,1.61,12.26,12.26,0,0,0,.49,1.56,53.1,53.1,0,0,1,4.86,8c.46,1,.86,1.94,1.23,2.93s.85,2.12,1.21,3.2a4.57,4.57,0,0,0,.05.52c.39,1.27.77,2.55,1.14,3.83,1,2.94,2,5.9,3,8.86l.24.71c.81,2.15,1.63,4.29,2.4,6.45,2.2,6,4,12.39,1,18a29.18,29.18,0,0,0-.05,7.36,84.34,84.34,0,0,1-.31,13.2c-.28,4-.48,8.09-.83,12.13-.33,2.91-.9,7.05-.33,10.3a7.59,7.59,0,0,0,1.31,1.41,35.38,35.38,0,0,1,4.59,1.77c2,.78,4,1.51,5.94,2.3,2.76,1.11,5.16,2.07,8.19,2a13.08,13.08,0,0,1,3,.42.81.81,0,0,1,.46-.12,23.4,23.4,0,0,1,2.89.3,1.9,1.9,0,0,1,1.63,1c.32.79-.29,1.62-1,2.27a3.37,3.37,0,0,1-2.6,2.11.75.75,0,0,1-.08.3,2.29,2.29,0,0,1-2.9,1.06,34.44,34.44,0,0,0-3.6,2.38,1.86,1.86,0,0,1-2.27,0c-2.36-2.26-4.75,0-7.35-.4-2.18-.35-4.53-1.79-6.63-1.94-4.84-.34-9.05,2.8-13.9,2.89a1.57,1.57,0,0,1-1.44-.62,21.25,21.25,0,0,1-1-2,16.69,16.69,0,0,1-1.52-4.48,4.25,4.25,0,0,1,1.55-4.11c.17-.52.35-1,.56-1.51,0-.49.12-1,.2-1.47a67,67,0,0,1-.93-7.36l-.12,0a39.79,39.79,0,0,0-.53-4.32c-1.21-6.65-5.65-12.12-5.63-19.07,0-8.82,2.77-17.55-.19-26l-.21.21a48.62,48.62,0,0,1-3.21,3.81c-.3.31-.57.62-.86.92a36.69,36.69,0,0,1-2.59,4.07c.49,2.84-1.63,5.2-4.09,6.94-2.61,3.66-6,4.51-10.11,6.2-3.79,3.59-8.29,6.75-12.22,9.82s-8.28,6-12.33,9.07a9.32,9.32,0,0,0-1.81,2.38,2.44,2.44,0,0,0-.1.24c1.38,3.23,1.42,6.67,2.16,10.06s3.58,1.9,5.35,3.45a14,14,0,0,0,5.7,3,.69.69,0,0,1,.51.93,4.15,4.15,0,0,1-.35.8.52.52,0,0,1,.13.3,2.46,2.46,0,0,1-1.3,2.41c-.32,1.31-2.67,2.2-3.69,2.4-1.91.38-4,.33-5.26-1.16a22.94,22.94,0,0,1-6,0h-.06l-.06,0a6.05,6.05,0,0,1-2.27-1c-1.38-1-1.8-3.35-2.32-4.82l-.06-.2a12.45,12.45,0,0,0-.74-1.1c-.16-.21-.34-.39-.51-.59a16.65,16.65,0,0,0-5.33-6.36c-3.42-1.63-7.43-3.44-7.21-6.55-.68-1.87,1-4.72,2.37-5.73a17.06,17.06,0,0,1,4.58-2,.19.19,0,0,1,0-.29c.76-.81,1.58-1.57,2.42-2.31a7.24,7.24,0,0,1,.59-.69c.76-.8,1.51-1.6,2.28-2.4l4.56-4.78c2.36-2.46,4.68-5.62,7.41-7.8,1.37-4.12,4.56-8.2,7.32-11a17,17,0,0,1,4.22-2.94c.9-.4,1.81-.81,2.74-1.14a9.81,9.81,0,0,1,3.27-.52c2.1-6.4,2.76-13.25,3-20.09a48.12,48.12,0,0,1-.38-6.12c0-.64,0-1.28.05-1.91,0-.33,0-.67,0-1,.09-1.8-.09-4.39.82-6.17-4.17-3.94-7.69-9.64-8.54-14.85-1-6.39.74-11.78,3.53-17.14.14-.43.28-.87.43-1.3a10.75,10.75,0,0,1,.27-1.7.21.21,0,0,1-.12-.4l.17-.12a35.61,35.61,0,0,1-3.3-7.7c-1.83-2.67-2-7-1.14-9.7a47.34,47.34,0,0,1,2.8-14c-.19-6.5-1.43-13-.08-19.51a48.14,48.14,0,0,1,2.56-8.35,26.14,26.14,0,0,1,0-7.23c.49-2.79,1.8-4.91,3-7.4.16-.32.29-.65.43-1l-4.63-2.53a19,19,0,0,0-1.62-1.48l-.12-.09c-.49-.4-1-.77-1.52-1.13l-.45-.3c-.45-.3-.9-.58-1.36-.85l-.43-.25c-.59-.34-1.19-.67-1.8-1-.2-.18-.42-.34-.63-.52s-.4-.33-.61-.48-.5-.34-.75-.51l-.59-.4c-.89-.56-1.78-1.07-2.54-1.52l-1.13-.67-.38-.23-1.23-.7a3.9,3.9,0,0,1-.35-.19l-1.1-.56-.3-.15q-.63-.28-1.26-.54a15.28,15.28,0,0,0-1.65-.56c-1-.71-2-1.43-2.93-2.17l-5.64-3.42a1.88,1.88,0,0,1-.57-.21l-1-.28h-1a.78.78,0,0,1-.55-.21,2.5,2.5,0,0,1-1.68-.25,20.14,20.14,0,0,1-3.46-1.69c-1.74-.65-3.46-1.32-5.17-2.07,0,0-.06,0-.09-.08l-.76-.35a.46.46,0,0,1-.16-.11.75.75,0,0,1-.5-.06l0,0a1.77,1.77,0,0,1-.69-.25l-.23,0a2.46,2.46,0,0,1-.61-.14,4.29,4.29,0,0,0-1.59.27.62.62,0,0,1-.75-.21,3.4,3.4,0,0,1-.26-.5l-.1,0a16.72,16.72,0,0,0-2.17-.72.45.45,0,0,1-.21-.17.93.93,0,0,1-1.18-.22c-.62-.77-1.3-1.5-2-2.22a3.32,3.32,0,0,1-1.78-.7,13.81,13.81,0,0,1-1.55-1.39,8.13,8.13,0,0,1-1-.9,32.58,32.58,0,0,1-4.32-7,1.8,1.8,0,0,1-.78-.81c-.08-.2-.16-.4-.23-.61a9.62,9.62,0,0,1-1.36-2.74c-1-1.67-2-3.35-2.84-5.1a.24.24,0,0,1,0-.22h-.1c-.37,0-.45-.56-.07-.58h.55c.78.59,3,.8,3.47.84a78.81,78.81,0,0,1,9.63,2l.45.18a3.37,3.37,0,0,0,2.21,1.3,17.69,17.69,0,0,1,1.86.51c1,.48,2,1,3,1.45a22.91,22.91,0,0,1,5.42,3.87,1.75,1.75,0,0,1,2.24,1.79,3.57,3.57,0,0,1,.88.11.69.69,0,0,1,.56.59c.11.43.21.87.31,1.31a1,1,0,0,1,.89.47c.73,1.14.57,2.61,2.38,2.77a.76.76,0,0,1,.57,1.05c-.15.35,6,4.45,6.57,5a1,1,0,0,1,.23.37l0,0a.45.45,0,0,1,0,.11.81.81,0,0,1-.06.59l3.85,2.33c2.34,2.45,6.3,3.92,8.84,5.49,4.19,2.59,8.07,5.69,12.6,7.52l7.36,4.47c.22-.69.44-1.38.67-2.06,0-.1.07-.19.1-.28.16-.56.3-1.12.46-1.67a45.16,45.16,0,0,1,2.42-6.05h0l.2-.42a14.66,14.66,0,0,1,1.22-4,22.7,22.7,0,0,1,2.14-4.44c.09-.12.42-.23.3-.14h0a38,38,0,0,1,5.14-2c2.17-.86,4.38-1.66,6.6-2.41a15,15,0,0,1,10.55,0"/>
          </g>
          <rect class="cls-1" x="58" y="112" width="173.61" height="263.75"/>
        </g>
        <text class="cls-4" transform="translate(81.47 72.5)">人類史</text>
        <rect class="cls-3" x="1" y="1" width="311.33" height="405"/>
      </g>
    </g>
  </g>
</svg>
