<?xml version="1.0" encoding="UTF-8"?>
<svg xmlns="http://www.w3.org/2000/svg" viewBox="0 0 469.34 186.75">
  <defs>
    <style>
      .cls-1 {
        fill: #fff;
      }

      .cls-2 {
        fill: #c7d4f9;
      }
    </style>
  </defs>
  <g id="_イヤー_1" data-name="レイヤー 1"/>
  <g id="_イヤー_2" data-name="レイヤー 2">
    <g id="_イヤー_2-2" data-name="レイヤー 2">
      <path d="M413.08,73.71v19.78h-61.23v-.11c0-8.91,1.25-17.53,3.58-25.69h51.63c3.4,0,6.02,2.78,6.02,6.02Z"/>
      <path d="M413.08,106.17v25.8h-52.91c-3.66-8.05-6.21-16.72-7.44-25.8h60.35Z"/>
      <path class="cls-2" d="M410.59,6.64c-10.71-4.29-22.39-6.64-34.62-6.64-37.89,0-70.52,22.58-85.16,55.01h9.15c10.35,0,18.7,8.35,18.7,18.7v70.94h-12.67V73.71c0-3.24-2.78-6.02-6.03-6.02h-13.79c-2.33,8.16-3.58,16.78-3.58,25.69,0,51.57,41.81,93.37,93.38,93.37,12.23,0,23.91-2.35,34.62-6.64,34.43-13.74,58.75-47.39,58.75-86.73s-24.32-73-58.75-86.74Zm15.32,138.01h-72.63c-10.36,0-18.7-8.35-18.7-18.7v-32.46h78.5v-19.78c0-3.24-2.62-6.02-6.02-6.02h-72.48v-12.68h72.48c10.5,0,18.85,8.35,18.85,18.7v70.94Zm-78.66-38.48v19.78c0,3.24,2.78,6.02,6.03,6.02h59.8v-25.8h-65.83Z"/>
    </g>
    <g id="_イヤー_1-2" data-name="レイヤー 1">
      <path class="cls-1" d="M0,33.22H12.52v98.91H111.27v12.52H0V33.22Z"/>
      <path class="cls-1" d="M211.1,55.01V125.95c0,10.35-8.34,18.7-18.85,18.7h-53.78c-10.35,0-18.7-8.35-18.7-18.7V55.01h12.67V125.95c0,3.25,2.78,6.03,6.03,6.03h53.78c3.4,0,6.18-2.78,6.18-6.03V55.01h12.67Z"/>
      <path class="cls-1" d="M227.33,55.01v89.64h12.67V73.71c0-3.24,2.78-6.02,6.18-6.02h39.99c1.24-4.36,2.8-8.6,4.64-12.68h-63.48Z"/>
      <path d="M318.66,73.71v70.94h-12.67V73.71c0-3.24-2.78-6.02-6.03-6.02h-13.79c1.24-4.36,2.8-8.6,4.64-12.68h9.15c10.35,0,18.7,8.35,18.7,18.7Z"/>
      <path d="M407.06,55.01h-72.48v12.68h72.48c3.4,0,6.02,2.78,6.02,6.02v19.78h-78.5v32.46c0,10.35,8.34,18.7,18.7,18.7h72.63V73.71c0-10.35-8.35-18.7-18.85-18.7Zm6.02,76.96h-59.8c-3.25,0-6.03-2.78-6.03-6.02v-19.78h65.83v25.8Z"/>
    </g>
  </g>
</svg>