<?xml version="1.0" encoding="UTF-8"?>
<svg xmlns="http://www.w3.org/2000/svg" viewBox="0 0 248.34 248.34">
  <defs>
    <style>
      .cls-1 {
        fill: #1a1a1a;
      }

      .cls-2, .cls-3, .cls-4, .cls-5, .cls-6, .cls-7, .cls-8, .cls-9, .cls-10, .cls-11, .cls-12, .cls-13, .cls-14 {
        stroke-miterlimit: 10;
      }

      .cls-2, .cls-3, .cls-4, .cls-5, .cls-6, .cls-7, .cls-9, .cls-11, .cls-12, .cls-13, .cls-14 {
        stroke: #1f1f1f;
      }

      .cls-2, .cls-3, .cls-4, .cls-5, .cls-6, .cls-7, .cls-13 {
        stroke-linecap: round;
      }

      .cls-2, .cls-13, .cls-14 {
        fill: none;
      }

      .cls-3 {
        fill: #812424;
      }

      .cls-4 {
        fill: #9a5050;
      }

      .cls-5, .cls-11 {
        fill: #333;
      }

      .cls-6, .cls-9, .cls-10 {
        fill: #e8cdbf;
      }

      .cls-7, .cls-8 {
        fill: #fff;
      }

      .cls-8, .cls-10 {
        stroke: #000;
      }

      .cls-12 {
        fill: #4d4d4d;
      }

      .cls-13 {
        stroke-width: 2px;
      }
    </style>
  </defs>
  <g id="_イヤー_1" data-name="レイヤー 1"/>
  <g id="_イヤー_2" data-name="レイヤー 2">
    <g id="_イヤー_3" data-name="レイヤー 3">
      <g>
        <path class="cls-8" d="M247.84,124.17c0,37.72-16.89,71.5-43.52,94.18-7.07,6.03-14.83,11.28-23.15,15.59-16.2,8.44-34.51,13.39-53.93,13.86-1.02,.03-2.04,.04-3.07,.04-20.2,0-39.27-4.84-56.11-13.44-8.3-4.22-16.06-9.36-23.14-15.28C17.77,196.43,.5,162.32,.5,124.17,.5,55.87,55.87,.5,124.17,.5s123.67,55.37,123.67,123.67Z"/>
        <g>
          <path class="cls-2" d="M110.24,102.65c-.79-2.55-1.39-4.27-1.39-4.27"/>
          <path class="cls-6" d="M150.87,117.76c-8.92,12.06-12.1,12.45-22.63,13.02-4.28,.22-11.24-2.02-15.27-3.52-3.85-1.43-7.89-3.01-10.84-5.76l-1.75-1.64c3.56-2.83,8.33-5.61,13.03-5.17-.36-1.84-.83-3.79-1.34-5.69-.61-2.31-1.27-4.54-1.83-6.35,1.56,1.2,3.25,2.26,5.04,3.16l9.25,5.19,9.83-5.48c1.21-.76,2.37-1.59,3.46-2.5-.41,1.53-.88,3.36-1.31,5.31-.33,1.5-.64,3.08-.89,4.63,9.32-.22,13.51,2.09,15.25,4.8Z"/>
          <path class="cls-2" d="M135.28,121.74c-.43-2.28-.19-5.49,.34-8.78"/>
          <path class="cls-2" d="M139.06,98.79s-.55,1.7-1.24,4.23"/>
          <path class="cls-3" d="M98.57,129.77c-.28,1.95-.65,4.06-1.14,5.63-1.54-.65-3.1-1.25-4.68-1.79-2.72-.93-5.49-1.66-8.16-2.72-2.1-.83-4.12-1.86-6.12-2.96l-2.04,.07c-1.19-.82-1.56-2.41-.93-3.7,.78-1.61,2.1-2.2,3.45-1.61,.11,.05,.22,.1,.34,.15,.86,.35,2.08,.78,3.49,1.25,5.3,1.77,13.38,4.16,15.79,5.68Z"/>
          <path class="cls-3" d="M173.11,122.96c-3.29,2.02-6.63,3.71-8.58,4.68-3.42,1.7-4.32,2.24-5.12,2.54-.98,.37-4.39,2.3-6.19,3.52,0,0-.3,.28-1.43,.96-.7-2.43-1.16-5.98-1.41-8.35,1.09-1.45,1.7-3.2,1.6-5.01,0-.04,0-.08-.01-.12-.07-1.1-.37-2.29-1.1-3.42-1.74-2.71-5.93-5.02-15.25-4.8,.25-1.55,.56-3.13,.89-4.63,.61-.24,1.2-.46,1.79-.66,4.49-1.52,9.15-.95,13.1,1.18,2.72,1.45,5.09,3.65,6.83,6.41,1.84,2.92,4.06,3.74,6.72,4.2,1.8-1.23,3.39-2.02,4.86-1.96,1.82,.07,3.35,.65,4.19,2.52,.49,1.06,.11,2.33-.89,2.94Z"/>
          <path class="cls-2" d="M150.87,128.87c6.01-2.73,10.47-6.95,14.08-9.41"/>
          <path class="cls-3" d="M82.78,124.09c-1.41-.47-2.63-.9-3.49-1.25,.89-.42,2.01-.9,2.99-1.31,.08,.46,.19,.9,.29,1.36l.21,1.2Z"/>
          <path class="cls-3" d="M113.41,114.69c-4.7-.44-9.47,2.34-13.03,5.17-.9,.72-1.72,1.44-2.44,2.11-.05,.29-.1,.57-.16,.85-.34,1.63,.09,3.29,1.08,4.56-.08,.73-.17,1.55-.29,2.39-2.41-1.52-10.49-3.91-15.79-5.68l-.21-1.2c-.1-.46-.21-.9-.29-1.36-.01-.02-.02-.05-.02-.07-.2-1.01-.35-2.03-.47-3.05-.12-1.06-.2-2.13-.23-3.2-.08-2.49,.25-5.32,2.24-6.8,.97-.72,2.2-1,3.39-1.2,8.07-1.34,16.32,.1,24.37,1.53l.51,.26c.51,1.9,.98,3.85,1.34,5.69Z"/>
          <path class="cls-2" d="M165.05,119.48s-.07,0-.1-.02"/>
          <path class="cls-2" d="M90.63,115.39c1.81,.91,6.04-5.75,7.48-1.86,.76,2.04,.38,5.56-.17,8.44"/>
          <path class="cls-3" d="M127.71,232.52c-.13,5.09-.29,10.19-.47,15.28-1.02,.03-2.04,.04-3.07,.04-20.2,0-39.27-4.84-56.11-13.44-8.3-4.22-16.06-9.36-23.14-15.28,2.56-21.7,5.32-43.46,11.27-64.26,1.33-4.63,2.85-9.3,5.52-13.11,1.91-2.73,4.34-4.93,6.82-6.98,3.14-2.59,6.43-5,9.94-6.84,2,1.1,4.02,2.13,6.12,2.96,2.67,1.06,5.44,1.79,8.16,2.72,1.58,.54,3.14,1.14,4.68,1.79,4.3,1.81,8.46,4.01,12.57,6.3,2.95,1.64,6.36,3.02,8.67,5.54,.56,.6,1.05,1.28,1.46,2.04,1.54,2.87,5.76,8.54,7.3,12.95h0c-.38,1.3-.63,3.13-.76,5.16-.24,3.67-1.19,3.64,1.44,3.62,.27,20.5,.13,41.01-.4,61.51Z"/>
          <path class="cls-3" d="M204.32,218.35c-7.07,6.03-14.83,11.28-23.15,15.59-16.2,8.44-34.51,13.39-53.93,13.86,.18-5.09,.34-10.19,.47-15.28,.53-20.5,.67-41.01,.4-61.51,.21-.01,.44-.01,.69-.01,3.81,.01,2.5,.31,2.13-3.61-.2-2.15-.46-4.09-.86-5.39,.9-4.37,2.74-9.9,4.47-12.72,1.43-2.34,3.64-5.24,6.08-7.61,0,0,0,0,.01,0h.01c1.62-1.6,3.35-2.96,5.02-3.77,3.15-1.53,5.03-2.57,6.13-3.23,1.13-.68,1.43-.96,1.43-.96,1.8-1.22,5.21-3.15,6.19-3.52,.8-.3,1.7-.84,5.12-2.54,1.95-.97,5.29-2.66,8.58-4.68,5.13,1.86,8.63,4.57,11.15,9.64,1.75,3.51,1.93,5.99,3.36,9.11,1.93,4.23,4.19,8.48,5.51,13.11,5.88,20.56,8.65,42.07,11.19,63.53Z"/>
          <path class="cls-2" d="M86.34,148.8v10.7c-7.75,20.53-13.65,41.75-17.59,63.34-.69,3.8-1.3,7.81-.69,11.56"/>
          <path class="cls-2" d="M162.74,149.45v10.7c7.75,20.53,13.65,41.76,17.59,63.34,.63,3.43,1.18,7.03,.84,10.45"/>
          <path class="cls-5" d="M128.8,171c-.25,0-.48,0-.69,.01-2.63,.02-1.68,.05-1.44-3.62,.13-2.03,.38-3.86,.76-5.15h0c.34-1.23,.8-1.97,1.37-1.97,.53,0,.94,.65,1.27,1.73,.4,1.3,.66,3.24,.86,5.39,.37,3.92,1.68,3.62-2.13,3.61Z"/>
          <path class="cls-7" d="M150.38,126.31c-.16,.22-.34,.44-.53,.65-1.74,1.92-5.05,6.21-9.21,14.69h-.01s-.01,.02-.01,.02c-2.44,2.37-4.65,5.27-6.08,7.61-1.73,2.82-3.57,8.35-4.47,12.72-.33-1.08-.74-1.73-1.27-1.73-.57,0-1.03,.74-1.37,1.96-1.54-4.41-5.76-10.08-7.3-12.95-.41-.76-.9-1.44-1.46-2.04-4.75-9.1-13.5-15.51-18.35-18.55-.57-.36-1.06-.8-1.46-1.31-.99-1.27-1.42-2.93-1.08-4.56,.06-.28,.11-.56,.16-.85,.72-.67,1.54-1.39,2.44-2.11l1.75,1.64c2.95,2.75,6.99,4.33,10.84,5.76,4.03,1.5,10.99,3.74,15.27,3.52,10.53-.57,13.71-.96,22.63-13.02,.73,1.13,1.03,2.32,1.1,3.42,.01,.04,.01,.08,.01,.12,.1,1.81-.51,3.56-1.6,5.01Z"/>
          <path class="cls-4" d="M118.67,147.24c-2.31-2.52-5.72-3.9-8.67-5.54-4.11-2.29-8.27-4.49-12.57-6.3,.49-1.57,.86-3.68,1.14-5.63,.12-.84,.21-1.66,.29-2.39,.4,.51,.89,.95,1.46,1.31,4.85,3.04,13.6,9.45,18.35,18.55Z"/>
          <path class="cls-4" d="M151.79,134.66c-1.1,.66-2.98,1.7-6.13,3.23-1.67,.81-3.4,2.17-5.02,3.76,4.16-8.48,7.47-12.77,9.21-14.69,.19-.21,.37-.43,.53-.65,.25,2.37,.71,5.92,1.41,8.35Z"/>
          <path class="cls-2" d="M151.4,108.85c2.8,3.1,5.41,7.64,2.75,12.17"/>
          <path class="cls-2" d="M113.41,114.69c.61,3.05,.91,5.78,.55,7.39"/>
          <path class="cls-10" d="M97.55,77.38c-.98-.26-1.95-.27-2.34,.47-.89,1.69,1.39,11.22,4.66,10.58"/>
          <path class="cls-10" d="M149.7,77.63c.99-.45,2.15-.75,2.62-.04,.9,1.36-.56,9.81-3.54,9.15-.11-.02-.22-.05-.32-.07"/>
          <path class="cls-9" d="M152.25,61.86l-3.28,21.7c-.04,.25-.08,.5-.12,.75-1.3,7.39-5.29,13.99-11.03,18.71-1.09,.91-2.25,1.74-3.46,2.5l-9.83,5.48-9.25-5.19c-1.79-.9-3.48-1.96-5.04-3.16-5.68-4.35-9.76-10.55-11.33-17.63-.06-.24-.11-.48-.15-.73l-4.13-20.96c33.06-28.37,57.62-1.47,57.62-1.47Z"/>
          <ellipse class="cls-12" cx="111.99" cy="78.13" rx="5.84" ry="2.57"/>
          <ellipse class="cls-12" cx="135.88" cy="78.13" rx="5.84" ry="2.57"/>
          <path class="cls-11" d="M123.44,38.17c2.45,0,4.71,.22,6.8,.61,13.13,2.46,22.62,14.01,22.67,27.37v.12c0,.79,0,0,0,0-.92,6.56-4.56,10.44-4.45,9.28,.75-7.78-2.56-13.26-2.56-13.26l.44,12.74c.01,.34-.47,.42-.57,.1l-4.52-14.27c-.01,.08-.19,9.54-.26,13.86,0,.18-.26,.19-.29,.02-1.34-8.14-4.96-12.75-5.16-13.05,1.29,3.19-1.5,9.43-2.7,12.77-.12,.33-.6,.27-.64-.08-.71-6.43-8.16-15.14-8.16-15.14,0,0-4.56,10.01-5.01,15.52-.04,.45-.63,.56-.83,.16l-5.53-11.37c-1.36,1.13-1.3,9.18-1.22,12.53,0,.39-.51,.53-.7,.19-2.95-5.47-4.05-13.41-4.05-13.41l-3.12,13.87c-.08,.38-.62,.38-.7,0l-3.04-13.65c-1.86,2.49-.87,10.92-.35,14.47,.07,.5-.55,.79-.89,.41-.18-.21-.36-.42-.54-.64-3.42-4.25-4.88-9.75-4.23-15.17v-.09c1.07-8.85,6.45-16.66,14.45-20.59,3.98-1.95,8.98-3.31,15.19-3.31Z"/>
          <polyline class="cls-14" points="124.61 80.67 123.74 88.15 124.53 90.04"/>
          <ellipse cx="124.17" cy="100.17" rx="3.08" ry=".47"/>
          <line class="cls-13" x1="103.2" y1="73.74" x2="118.64" y2="73.74"/>
          <line class="cls-2" x1="103.2" y1="69.21" x2="118.64" y2="69.21"/>
          <line class="cls-13" x1="128.16" y1="73.74" x2="143.6" y2="73.74"/>
          <line class="cls-2" x1="128.16" y1="69.51" x2="143.6" y2="69.51"/>
          <g>
            <path class="cls-1" d="M145.53,50.74c3.7,4.52,4.86,10.34,5.89,15.91-1.25-5.43-2.66-11.19-6.46-15.42-.34-.36,.26-.88,.57-.49h0Z"/>
            <path class="cls-1" d="M142.65,57.08c1.49,3.63,2.23,7.53,2.18,11.4-.2-3.86-1.18-7.66-2.86-11.09-.23-.45,.5-.78,.68-.31h0Z"/>
            <path class="cls-1" d="M128.38,39.69c3.09,1.19,5.89,2.85,8.58,4.74,1.31,.95,2.61,2.04,3.46,3.45,.91,1.36,1.66,2.79,2.55,4.15-.94-1.33-1.75-2.74-2.7-4.05-.89-1.37-2.17-2.35-3.52-3.25-2.68-1.74-5.59-3.3-8.6-4.33-.48-.14-.25-.88,.23-.71h0Z"/>
            <path class="cls-1" d="M137.45,60.11c1.54,2.75,2.38,5.86,2.43,8.96-.3-3.08-1.37-6.05-3.06-8.56-.28-.43,.39-.84,.64-.39h0Z"/>
            <path class="cls-1" d="M133.28,61.44c.8,3.13,1.57,6.96-.55,9.75,1.87-2.94,.85-6.49-.17-9.55-.15-.48,.6-.7,.72-.2h0Z"/>
            <path class="cls-1" d="M118.31,42.37c-3.99,.93-8.17,1.94-11.8,3.92-3.2,2.57-5.96,6.04-7.12,10.03-.38,1.13-.76,2.27-.98,3.45,.19-1.19,.53-2.34,.89-3.48,1.08-4.07,3.78-7.65,6.97-10.35,3.67-2.13,7.8-3.24,11.89-4.31,.49-.11,.65,.64,.15,.74h0Z"/>
            <path class="cls-1" d="M96.6,66.36c.05,2.99,.67,6,1.83,8.81-1.39-2.71-2.27-5.7-2.58-8.77-.05-.51,.74-.56,.75-.04h0Z"/>
            <path class="cls-1" d="M122.33,59.97c-1.45,2.22-2.57,4.68-3.3,7.27,.48-2.65,1.38-5.24,2.65-7.65,.1-.18,.32-.25,.51-.16,.2,.1,.26,.35,.14,.54h0Z"/>
            <path class="cls-1" d="M109.58,63.14c-.04,2.73,.12,5.47,.49,8.19-.62-2.68-1.03-5.41-1.24-8.17-.03-.51,.75-.54,.75-.02h0Z"/>
            <path class="cls-1" d="M125.84,40.83c4.98,4.59,11.76,8.93,12.57,16.24-1.07-7.24-7.92-11.27-13.05-15.66-.39-.3,.11-.91,.48-.58h0Z"/>
            <path class="cls-1" d="M126.21,46.46c1.22,2.23,2.31,4.51,3.29,6.84,.95,2.31,1.99,4.77,1.68,7.32,.17-2.56-.97-4.91-2.03-7.17-1.08-2.27-2.28-4.48-3.59-6.62-.26-.42,.41-.82,.65-.38h0Z"/>
            <path class="cls-1" d="M110.82,49.59c-3.01,3.64-5.35,7.86-6.86,12.39,1.26-4.6,3.39-8.98,6.27-12.85,.29-.4,.91,.08,.59,.46h0Z"/>
            <path class="cls-1" d="M122.18,40.91c-1.01,3.92-2.72,8.6-3.91,12.48-.42,1.39-.85,2.77-1.13,4.2,.23-1.43,.59-2.84,.95-4.25,.57-2.09,1.73-6.3,2.32-8.39,.38-1.4,.76-2.81,1.03-4.2,.1-.49,.85-.33,.73,.16h0Z"/>
            <path class="cls-1" d="M122.99,49.66c-.43,2.19-.98,4.36-1.64,6.48,.42-2.18,.72-4.38,.9-6.58,.05-.52,.84-.41,.74,.1h0Z"/>
          </g>
        </g>
      </g>
    </g>
  </g>
</svg>