<svg xmlns="http://www.w3.org/2000/svg" viewBox="0 0 500 500">
  <defs>
    <style>
      .cls-1, .cls-13, .cls-14 {
        fill: none;
      }

      .cls-1, .cls-10, .cls-11, .cls-12, .cls-13, .cls-14, .cls-2, .cls-3, .cls-4, .cls-5, .cls-6, .cls-7, .cls-8 {
        stroke: #1f1f1f;
      }

      .cls-1, .cls-14, .cls-2, .cls-3, .cls-4, .cls-5, .cls-6, .cls-7, .cls-8 {
        stroke-linecap: round;
      }

      .cls-1, .cls-10, .cls-11, .cls-12, .cls-13, .cls-14, .cls-2, .cls-3, .cls-4, .cls-5, .cls-6, .cls-7, .cls-8, .cls-9 {
        stroke-miterlimit: 10;
      }

      .cls-10, .cls-2, .cls-9 {
        fill: #e8cdbf;
      }

      .cls-3 {
        fill: #812424;
      }

      .cls-4 {
        fill: #999;
      }

      .cls-12, .cls-5 {
        fill: #333;
      }

      .cls-6 {
        fill: #fff;
      }

      .cls-7 {
        fill: #9a5050;
      }

      .cls-11, .cls-8 {
        fill: #4d4d4d;
      }

      .cls-9 {
        stroke: #000;
      }

      .cls-14 {
        stroke-width: 2px;
      }

      .cls-15 {
        fill: #1a1a1a;
      }
    </style>
  </defs>
  <g id="レイヤー_5" data-name="レイヤー 5">
    <path class="cls-1" d="M233.18,71.74c-.79-2.55-1.39-4.27-1.39-4.27"/>
    <path class="cls-2" d="M273.81,86.85c-8.92,12.06-12.1,12.45-22.63,13-4.28.22-11.24-2-15.27-3.52-3.85-1.43-7.89-3-10.84-5.76L223.32,89c3.56-2.83,8.33-5.61,13-5.17-.36-1.84-.83-3.79-1.34-5.69-.61-2.31-1.27-4.54-1.83-6.35a31.41,31.41,0,0,0,5,3.16l9.25,5.19,9.83-5.48a31.69,31.69,0,0,0,3.46-2.5c-.41,1.53-.88,3.36-1.31,5.31-.33,1.5-.64,3.08-.89,4.63C267.88,81.83,272.07,84.14,273.81,86.85Z"/>
    <path class="cls-1" d="M258.22,90.83a27.92,27.92,0,0,1,.34-8.78"/>
    <path class="cls-1" d="M262,67.88s-.55,1.7-1.24,4.23"/>
    <path class="cls-3" d="M221.51,98.86a39.09,39.09,0,0,1-1.14,5.63q-2.31-1-4.68-1.79c-2.72-.93-5.49-1.66-8.16-2.72a53.8,53.8,0,0,1-6.12-3l-2,.07a2.93,2.93,0,0,1-.93-3.7c.78-1.61,2.1-2.2,3.45-1.61l.34.15c.86.35,2.08.78,3.49,1.25C211,95,219.1,97.34,221.51,98.86Z"/>
    <path class="cls-3" d="M296.05,92.05c-3.29,2-6.63,3.71-8.58,4.68-3.42,1.7-4.32,2.24-5.12,2.54a50,50,0,0,0-6.19,3.52,10.19,10.19,0,0,1-1.43,1,55.19,55.19,0,0,1-1.41-8.35,7.65,7.65,0,0,0,1.6-5,.49.49,0,0,0,0-.12,7,7,0,0,0-1.1-3.42c-1.74-2.71-5.93-5-15.25-4.8.25-1.55.56-3.13.89-4.63.61-.24,1.2-.46,1.79-.66a16.34,16.34,0,0,1,13.1,1.18,18.29,18.29,0,0,1,6.83,6.41c1.84,2.92,4.06,3.74,6.72,4.2,1.8-1.23,3.39-2,4.86-2a4.28,4.28,0,0,1,4.19,2.52A2.31,2.31,0,0,1,296.05,92.05Z"/>
    <path class="cls-1" d="M273.81,98c6-2.73,10.47-6.95,14.08-9.41"/>
    <path class="cls-3" d="M205.72,93.18c-1.41-.47-2.63-.9-3.49-1.25.89-.42,2-.9,3-1.31.08.46.19.9.29,1.36Z"/>
    <path class="cls-3" d="M236.35,83.78c-4.7-.44-9.47,2.34-13,5.17-.9.72-1.72,1.44-2.44,2.11,0,.29-.1.57-.16.85a5.57,5.57,0,0,0,1.08,4.56c-.08.73-.17,1.55-.29,2.39C219.1,97.34,211,95,205.72,93.18l-.21-1.2c-.1-.46-.21-.9-.29-1.36a.19.19,0,0,1,0-.07c-.2-1-.35-2-.47-3s-.2-2.13-.23-3.2c-.08-2.49.25-5.32,2.24-6.8a7.75,7.75,0,0,1,3.39-1.2c8.07-1.34,16.32.1,24.37,1.53l.51.26C235.52,80,236,81.94,236.35,83.78Z"/>
    <path class="cls-1" d="M288,88.57l-.1,0"/>
    <path class="cls-1" d="M213.57,84.48c1.81.91,6-5.75,7.48-1.86.76,2,.38,5.56-.17,8.44"/>
    <path class="cls-3" d="M250.65,201.61q-.79,30.46-2.81,60.88h-.29c-7,.18-9.22-.56-14.82-2.34C219.47,256,218,253.87,218,253.87c-1.41-.65-4.66-3.43-7.85-6.61-1.75-1.74-3.49-3.61-4.9-5.32.4,1.54.78,3.05,1.15,4.47-2.66,6.4-6.53,11.81-12.12,15l-.17.11c-5.26-10.68-12.07-32-15.22-35.67-2.46-2.9-6.66-12.26-9.37-15.1s-2-8.41-2.34-12.59a30.14,30.14,0,0,1,.29-6.22c2.7-22.92,5.42-46,11.71-68,1.33-4.63,2.85-9.3,5.52-13.11a36.12,36.12,0,0,1,6.82-7A58.79,58.79,0,0,1,201.41,97a53.8,53.8,0,0,0,6.12,3c2.67,1.06,5.44,1.79,8.16,2.72q2.37.81,4.68,1.79a128.24,128.24,0,0,1,12.57,6.3c2.95,1.64,6.36,3,8.67,5.54a9.79,9.79,0,0,1,1.46,2c1.54,2.87,5.76,8.54,7.3,12.95h0a25.23,25.23,0,0,0-.76,5.15c-.24,3.67-1.19,3.64,1.44,3.62Q251.46,170.85,250.65,201.61Z"/>
    <path class="cls-3" d="M328.08,198.09c-.39,4.18.35,9.75-2.35,12.59s-6.91,12.2-9.36,15.1c-3.77,4.44-16.9,29.05-22.79,35-3-1.86-5.56-7.74-7.12-13h0c.45-1.35,1-3,1.56-4.8q-1.12.92-2.37,1.83h0c-11.19,8.3-29.66,17.26-37.81,17.68q2-30.41,2.81-60.88.79-30.75.4-61.51h.69c3.81,0,2.5.31,2.13-3.61a29.66,29.66,0,0,0-.86-5.39c.9-4.37,2.74-9.9,4.47-12.72a41.1,41.1,0,0,1,6.08-7.61,0,0,0,0,1,0,0h0a20.11,20.11,0,0,1,5-3.76c3.15-1.53,5-2.57,6.13-3.23a10.19,10.19,0,0,0,1.43-1,50,50,0,0,1,6.19-3.52c.8-.3,1.7-.84,5.12-2.54,1.95-1,5.29-2.66,8.58-4.68,5.13,1.86,8.63,4.57,11.15,9.64,1.75,3.51,1.93,6,3.36,9.11,1.93,4.23,4.19,8.48,5.51,13.11,6.29,22,9,45,11.71,68A30.14,30.14,0,0,1,328.08,198.09Z"/>
    <path class="cls-1" d="M209.28,117.89v10.7a365,365,0,0,0-17.59,63.34c-.94,5.15-1.73,10.69.46,15.45,1.31,2.88,3.6,5.19,5.15,8,2,3.59,5.2,16.06,7.9,26.61"/>
    <path class="cls-1" d="M285.68,118.54v10.7a365.23,365.23,0,0,1,17.59,63.34c.94,5.16,1.73,10.69-.46,15.46-1.31,2.87-3.6,5.18-5.15,7.94-2.45,4.4-6.7,17.89-9.63,27h0"/>
    <path class="cls-4" d="M310.27,473.82s-12,4.06-18.95,3.51l-1.87-.49c-3-14.63-.49-30-4.6-44.36-2.77-9.64-4.39-18.77-7.45-29.5-2.44-8.55-.51-15,.65-24s0-18,0-30.89c0-7.14-3.92-14.89-6.68-22.86-3.39-9.82-9.75-17.79-15.61-27.48a8.71,8.71,0,0,0-15.58,1c-4.46,9.58-10.05,18.82-14.51,28.12-.34.27-.31.4-.17.42,1.4,19-4,37.59-6.71,57.24-.29,2.09.84,4.12,1.11,6.19,2.21,17.36-5.31,29.86-10.38,45.45-2.34,7.21-4.82,14.37-7.3,21.53l-6.08,17.54s-21.87,8.55-17.39-3.66c4.41-3.59,5.41-19.88,6.14-25.72q1.23-9.73,2.71-19.43h0c-1.44-6.64-2.21-13.51-3-18-5.38-29.25,6-60.18-2.08-88.8-2.2-7.76-5.84-15.55-4.57-23.52,1.56-9.73,10.27-18.86,10.75-28.7,4.31-4.7,3.55-4.66,5.39-5.88l.17-.11c5.59-3.16,9.46-8.57,12.12-15-.37-1.42-.75-2.93-1.15-4.47,1.41,1.71,3.15,3.58,4.9,5.32,3.19,3.18,6.44,6,7.85,6.61,0,0,1.52,2.09,14.78,6.29,5.6,1.78,7.84,2.52,14.82,2.34h.29c8.15-.42,26.62-9.38,37.81-17.68h0q1.25-.92,2.37-1.83c-.58,1.81-1.11,3.45-1.56,4.8h0c1.56,5.24,4.13,11.12,7.12,13a34.7,34.7,0,0,0,4.05,2.13h0c10.55,9.51,17.21,23.3,15.37,34.9-.76,4.79-2.52,9.37-3.4,14.14-1.51,8.19-.4,16.61.57,24.88q3.56,30.3,4.46,60.84c.29,9.78,1.32,22.16-4.43,31.3,4.13,6.36-.75,16.27-1.73,26.68C307.92,461.51,305.85,470.23,310.27,473.82Z"/>
    <line class="cls-1" x1="288.03" y1="242.96" x2="288.02" y2="242.97"/>
    <path class="cls-1" d="M187.6,426.41c1.64,7.52,4.15,14.74,8.62,17.83"/>
    <path class="cls-1" d="M310.29,429c-1.31,2.07-3.76,4-5.33,5.65"/>
    <path class="cls-5" d="M251.74,140.09h-.69c-2.63,0-1.68.05-1.44-3.62a25.23,25.23,0,0,1,.76-5.15h0c.34-1.22.8-2,1.37-2s.94.65,1.27,1.73a29.66,29.66,0,0,1,.86,5.39C254.24,140.4,255.55,140.1,251.74,140.09Z"/>
    <path class="cls-6" d="M273.32,95.4a7.93,7.93,0,0,1-.53.65c-1.74,1.92-5.05,6.21-9.21,14.69h0a0,0,0,0,0,0,0,41.1,41.1,0,0,0-6.08,7.61c-1.73,2.82-3.57,8.35-4.47,12.72-.33-1.08-.74-1.73-1.27-1.73s-1,.74-1.37,2c-1.54-4.41-5.76-10.08-7.3-12.95a9.79,9.79,0,0,0-1.46-2c-4.75-9.1-13.5-15.51-18.35-18.55a5.74,5.74,0,0,1-1.46-1.31,5.57,5.57,0,0,1-1.08-4.56c.06-.28.11-.56.16-.85.72-.67,1.54-1.39,2.44-2.11l1.75,1.64c3,2.75,7,4.33,10.84,5.76,4,1.5,11,3.74,15.27,3.52,10.53-.57,13.71-1,22.63-13a7,7,0,0,1,1.1,3.42.49.49,0,0,1,0,.12A7.65,7.65,0,0,1,273.32,95.4Z"/>
    <path class="cls-7" d="M241.61,116.33c-2.31-2.52-5.72-3.9-8.67-5.54a128.24,128.24,0,0,0-12.57-6.3,39.09,39.09,0,0,0,1.14-5.63c.12-.84.21-1.66.29-2.39a5.74,5.74,0,0,0,1.46,1.31C228.11,100.82,236.86,107.23,241.61,116.33Z"/>
    <path class="cls-7" d="M274.73,103.75c-1.1.66-3,1.7-6.13,3.23a20.11,20.11,0,0,0-5,3.76c4.16-8.48,7.47-12.77,9.21-14.69a7.93,7.93,0,0,0,.53-.65A55.19,55.19,0,0,0,274.73,103.75Z"/>
    <path class="cls-1" d="M274.34,77.94c2.8,3.1,5.41,7.64,2.75,12.17"/>
    <path class="cls-1" d="M236.35,83.78c.61,3,.91,5.78.55,7.39"/>
  </g>
  <g id="レイヤー_6" data-name="レイヤー 6">
    <path class="cls-1" d="M200.56,475.39c-.42,1.51-1.1,3.09-2.46,3.66-1.65.7-3.52.49-5.26.9-3.06.72-5.4,3.24-7.83,5.34-5.9,5.1-16.85,8.16-25.37,8.81-1.32.11-2.59.15-3.76.14a7.23,7.23,0,0,1-7.11-7.66c0-.77.72-1.53,1.78-2.28a7.22,7.22,0,0,0,4.36,6.15,10.85,10.85,0,0,0,4.43.8,24,24,0,0,0,5.76-.91,65.6,65.6,0,0,0,23.45-11.54,14.88,14.88,0,0,1,3.69-2.37,12.16,12.16,0,0,1,2.74-.58C196.83,475.62,198.69,475.46,200.56,475.39Z"/>
    <path class="cls-8" d="M201.15,472.94c-.17.62-.33,1.53-.59,2.45-1.87.07-3.73.23-5.58.46a12.16,12.16,0,0,0-2.74.58,14.88,14.88,0,0,0-3.69,2.37,65.6,65.6,0,0,1-23.45,11.54,24,24,0,0,1-5.76.91,18,18,0,0,0-4.74-9.14c3.83-1.74,8.38-3.32,9.71-4.52,4.41-4,6.57-8.46,11.66-11.36,0,0,9.33,1.42,8.08,3.73s14.61-1.76,15.41-3.82C200.61,463.18,202.11,469.27,201.15,472.94Z"/>
    <path class="cls-1" d="M330.21,488.14a5.13,5.13,0,0,1-4.73,5.06,31.64,31.64,0,0,1-7.34-.28,33,33,0,0,1-16.2-7.29c-2.2-1.84-4.32-4.05-7.07-4.65-1.56-.34-3.23-.13-4.72-.73A6.05,6.05,0,0,1,287,477c4.54,1,9.28,1.19,13.42,3.24a39.32,39.32,0,0,1,5.86,3.91c3.78,2.82,8.06,5.49,12.62,6.14a13.81,13.81,0,0,0,3.28.1,7.13,7.13,0,0,0,5.22-2.51,19.89,19.89,0,0,0,1.33-2.55A4.26,4.26,0,0,1,330.21,488.14Z"/>
    <path class="cls-8" d="M324.65,482.25a11.15,11.15,0,0,0-3.79,3.37,10.18,10.18,0,0,0-1.13,2,21,21,0,0,0-.81,2.59c-4.56-.65-8.84-3.32-12.62-6.14a39.32,39.32,0,0,0-5.86-3.91c-4.14-2.05-8.88-2.29-13.42-3.24a9.38,9.38,0,0,1-.59-1.79,16.48,16.48,0,0,1-.23-4.44,1.47,1.47,0,0,1,2.12-1.22c3.62,1.84,11.11,5.38,11.71,3.56.68-2,7.16-3.88,9.17-4.41a1.46,1.46,0,0,1,1.12.15A13.6,13.6,0,0,1,313.8,472c.52.61,1,1.26,1.46,1.91a28.43,28.43,0,0,0,4.29,5.09A48.6,48.6,0,0,0,324.65,482.25Z"/>
    <path class="cls-1" d="M159.34,491.25a10.85,10.85,0,0,1-4.43-.8,7.22,7.22,0,0,1-4.36-6.15,25.45,25.45,0,0,1,4-2.19A18,18,0,0,1,159.34,491.25Z"/>
    <path class="cls-1" d="M181.83,472.84l-16.78,9.94a14.28,14.28,0,0,1-5,2.16"/>
    <g>
      <path class="cls-1" d="M158.56,482a29.24,29.24,0,0,1,4.86.62"/>
      <path class="cls-1" d="M161.3,481l-.19,2.81"/>
    </g>
    <g>
      <path class="cls-1" d="M162,479.83a32.87,32.87,0,0,1,5.09,1.06"/>
      <path class="cls-1" d="M164.31,477.58c-.06.94.8,4.27.74,5.2"/>
    </g>
    <path class="cls-1" d="M165.74,477.59a33.8,33.8,0,0,1,5.18,1.08"/>
    <path class="cls-1" d="M167.08,475.45l1.66,4.28"/>
    <path class="cls-1" d="M168.08,474.7a50.5,50.5,0,0,1,6.22,1.3"/>
    <path class="cls-1" d="M170.43,473.14l2.36,4.28"/>
    <path class="cls-1" d="M170,472.25c1.39.15,7.19,1.36,8.52,1.77"/>
    <path class="cls-1" d="M175.07,472l1.2,3.68"/>
    <path class="cls-1" d="M178.8,472.6c.92,1,2,2,3.22,2.1a.79.79,0,0,0,.89-.55,1.21,1.21,0,0,0-.41-1,8.69,8.69,0,0,0-3.46-2.38c-.32-.11-1.31-.56-1.52.07C177.38,471.31,178.55,472.33,178.8,472.6Z"/>
    <path class="cls-1" d="M173,471.43a19.77,19.77,0,0,1-3.94-.15c-.49-.17-.86-.6-.66-1s2.07-.88,4.6-.88c1.34,0,4.35-.06,4.66,1.31C177.86,471.68,174.16,471.42,173,471.43Z"/>
    <path class="cls-1" d="M328.75,485.29a19.89,19.89,0,0,1-1.33,2.55,7.13,7.13,0,0,1-5.22,2.51,13.81,13.81,0,0,1-3.28-.1,21,21,0,0,1,.81-2.59,10.18,10.18,0,0,1,1.13-2,11.15,11.15,0,0,1,3.79-3.37A22.16,22.16,0,0,1,328.75,485.29Z"/>
    <path class="cls-1" d="M320.86,485.62l-.62-.37-15.06-8.92-1.72-1"/>
    <g>
      <path class="cls-1" d="M323.3,482.3a33.8,33.8,0,0,0-5.09,1.05"/>
      <path class="cls-1" d="M321,480.05c.06.94-.81,4.26-.75,5.2"/>
    </g>
    <path class="cls-1" d="M319.54,480.05a36.66,36.66,0,0,0-5.18,1.08"/>
    <path class="cls-1" d="M318.21,477.91l-1.67,4.28"/>
    <path class="cls-1" d="M317.2,477.17a49.08,49.08,0,0,0-6.22,1.3"/>
    <path class="cls-1" d="M314.86,475.6l-2.36,4.29"/>
    <path class="cls-1" d="M315.24,474.72c-1.39.15-7.19,1.35-8.52,1.77"/>
    <path class="cls-1" d="M310.21,474.44,309,478.12"/>
    <path class="cls-1" d="M306.49,475.07c-.93,1-2,2-3.23,2.1a.79.79,0,0,1-.88-.55,1.18,1.18,0,0,1,.41-1,8.69,8.69,0,0,1,3.45-2.39c.32-.11,1.32-.55,1.52.08C307.91,473.78,306.74,474.79,306.49,475.07Z"/>
    <path class="cls-1" d="M312.29,473.9a19.72,19.72,0,0,0,3.94-.15c.49-.18.86-.6.67-1s-2.07-.88-4.61-.88c-1.33,0-4.34-.06-4.65,1.31C307.43,474.14,311.12,473.89,312.29,473.9Z"/>
  </g>
  <g id="レイヤー_1" data-name="レイヤー 1">
    <path class="cls-9" d="M220.48,46.46c-1-.25-1.94-.26-2.33.47-.9,1.68,1.39,11.22,4.65,10.58"/>
    <path class="cls-9" d="M272.64,46.72c1-.45,2.14-.76,2.62,0,.89,1.36-.56,9.82-3.55,9.16l-.32-.07"/>
    <path class="cls-10" d="M275.19,31l-3.28,21.7-.12.75a31.32,31.32,0,0,1-11,18.71,31.69,31.69,0,0,1-3.46,2.5l-9.83,5.48-9.25-5.19a31.41,31.41,0,0,1-5-3.16,30.6,30.6,0,0,1-11.33-17.63c-.06-.24-.11-.48-.15-.73l-4.13-21C250.63,4.05,275.19,31,275.19,31Z"/>
  </g>
  <g id="レイヤー_4" data-name="レイヤー 4">
    <ellipse class="cls-11" cx="234.93" cy="47.21" rx="5.84" ry="2.57"/>
    <ellipse class="cls-11" cx="258.82" cy="47.21" rx="5.84" ry="2.57"/>
  </g>
  <g id="レイヤー_2" data-name="レイヤー 2">
    <path class="cls-12" d="M246.38,7.25a37.05,37.05,0,0,1,6.8.61,27.92,27.92,0,0,1,22.67,27.37v.13h0c-.93,6.56-4.57,10.44-4.45,9.28a23.28,23.28,0,0,0-2.56-13.26l.43,12.73a.29.29,0,0,1-.57.1l-4.52-14.27c0,.08-.19,9.54-.27,13.87a.15.15,0,0,1-.29,0,30.16,30.16,0,0,0-5.16-13c1.29,3.19-1.5,9.43-2.7,12.77a.33.33,0,0,1-.64-.08C254.41,37,247,28.33,247,28.33s-4.56,10-5,15.52a.44.44,0,0,1-.83.16l-5.53-11.36c-1.37,1.12-1.31,9.18-1.22,12.53a.37.37,0,0,1-.7.18c-3-5.46-4.06-13.41-4.06-13.41l-3.12,13.87a.36.36,0,0,1-.7,0l-3-13.65c-1.87,2.49-.87,10.92-.35,14.47a.51.51,0,0,1-.89.41l-.54-.64a20.38,20.38,0,0,1-4.23-15.17v-.1a26.36,26.36,0,0,1,14.44-20.58A34,34,0,0,1,246.38,7.25Z"/>
  </g>
  <g id="レイヤー_3" data-name="レイヤー 3">
    <polyline class="cls-13" points="247.54 49.75 246.68 57.24 247.47 59.13"/>
    <ellipse cx="247.11" cy="69.26" rx="3.08" ry="0.47"/>
    <line class="cls-14" x1="226.14" y1="42.82" x2="241.58" y2="42.82"/>
    <line class="cls-1" x1="226.14" y1="38.3" x2="241.58" y2="38.3"/>
    <line class="cls-14" x1="251.1" y1="42.82" x2="266.53" y2="42.82"/>
    <line class="cls-1" x1="251.1" y1="38.59" x2="266.53" y2="38.59"/>
    <g>
      <path class="cls-15" d="M268.47,19.82c3.69,4.52,4.86,10.34,5.88,15.91-1.24-5.43-2.66-11.19-6.45-15.42a.38.38,0,0,1,.57-.49Z"/>
      <path class="cls-15" d="M265.59,26.16a29.12,29.12,0,0,1,2.18,11.4,28.64,28.64,0,0,0-2.87-11.09.38.38,0,0,1,.69-.31Z"/>
      <path class="cls-15" d="M251.32,8.77a39.65,39.65,0,0,1,8.58,4.74A12.22,12.22,0,0,1,263.36,17c.9,1.36,1.66,2.79,2.54,4.15-.93-1.32-1.75-2.73-2.7-4a11.85,11.85,0,0,0-3.51-3.25,39.19,39.19,0,0,0-8.6-4.33.38.38,0,1,1,.23-.72Z"/>
      <path class="cls-15" d="M260.38,29.19a19,19,0,0,1,2.43,9,18.73,18.73,0,0,0-3.07-8.57.37.37,0,1,1,.64-.39Z"/>
      <path class="cls-15" d="M256.22,30.52c.8,3.13,1.57,7-.55,9.75,1.87-2.94.85-6.48-.17-9.54a.38.38,0,1,1,.72-.21Z"/>
      <path class="cls-15" d="M241.25,11.46c-4,.93-8.17,1.94-11.8,3.92a20.82,20.82,0,0,0-7.12,10,25.58,25.58,0,0,0-1,3.45,24.63,24.63,0,0,1,.88-3.48,21.1,21.1,0,0,1,7-10.35c3.67-2.13,7.81-3.24,11.89-4.31a.38.38,0,1,1,.15.74Z"/>
      <path class="cls-15" d="M219.53,35.45a24.23,24.23,0,0,0,1.83,8.81,24.58,24.58,0,0,1-2.58-8.77.38.38,0,1,1,.75,0Z"/>
      <path class="cls-15" d="M245.26,29.05A26,26,0,0,0,242,36.33a26.5,26.5,0,0,1,2.65-7.66.37.37,0,1,1,.64.38Z"/>
      <path class="cls-15" d="M232.51,32.22a55,55,0,0,0,.49,8.2,56.14,56.14,0,0,1-1.24-8.17.38.38,0,1,1,.75,0Z"/>
      <path class="cls-15" d="M248.78,9.91c5,4.59,11.76,8.93,12.57,16.24-1.07-7.25-7.93-11.27-13.05-15.66-.39-.3.11-.91.48-.58Z"/>
      <path class="cls-15" d="M249.14,15.54a70.57,70.57,0,0,1,3.29,6.85c.95,2.31,2,4.77,1.69,7.32.17-2.56-1-4.91-2-7.17a71.61,71.61,0,0,0-3.59-6.62c-.27-.42.41-.82.64-.38Z"/>
      <path class="cls-15" d="M233.75,18.67a38.46,38.46,0,0,0-6.85,12.39,38.78,38.78,0,0,1,6.26-12.85c.29-.4.92.08.59.46Z"/>
      <path class="cls-15" d="M245.12,10c-1,3.92-2.72,8.6-3.91,12.49a43.2,43.2,0,0,0-1.14,4.19c.23-1.43.59-2.84,1-4.25.57-2.09,1.73-6.29,2.32-8.38.38-1.4.76-2.81,1-4.21a.38.38,0,0,1,.74.16Z"/>
      <path class="cls-15" d="M245.93,18.74a62.06,62.06,0,0,1-1.64,6.48,58.73,58.73,0,0,0,.89-6.58.38.38,0,1,1,.75.1Z"/>
    </g>
  </g>
</svg>
