<?xml version="1.0" encoding="UTF-8"?>
<svg id="_イヤー_1" data-name="レイヤー 1" xmlns="http://www.w3.org/2000/svg" viewBox="0 0 313.34 407">
  <defs>
    <style>
      .cls-1 {
        font-family: ToppanBunkyuMidashiMinchoStdN-ExtraBold-83pv-RKSJ-H, Toppan Bunkyu Midashi Mincho;
        font-size: 48px;
        isolation: isolate;
      }

      .cls-2 {
        stroke-miterlimit: 10;
        stroke-width: 2px;
      }

      .cls-2, .cls-3 {
        fill: none;
        stroke: #1f1f1f;
      }

      .cls-3 {
        stroke-linecap: round;
        stroke-linejoin: round;
        stroke-width: 7px;
      }
    </style>
  </defs>
  <rect class="cls-2" x="1" y="1" width="311.34" height="405"/>
  <text class="cls-1" transform="translate(81.14 72.5)"><tspan x="0" y="0">科学史</tspan></text>
  <g>
    <path class="cls-3" d="M134.19,136.63c5.12-8.95,11.17-14.12,17.65-14.12,18.44,0,33.39,41.85,33.39,93.48s-14.95,93.48-33.39,93.48-33.39-41.85-33.39-93.48c0-23.93,3.21-45.77,8.5-62.3"/>
    <path class="cls-3" d="M93.73,270.93c-11.23,.36-19.41-2.26-22.84-8.19-9.22-15.97,19.55-49.84,64.26-75.65,44.71-25.81,88.43-33.79,97.65-17.83,9.22,15.97-19.55,49.84-64.26,75.65-19.62,11.33-39.04,19.22-55.45,23.16"/>
    <path class="cls-3" d="M230.58,265.54c-12.67,12.05-53.62,3.51-95.43-20.63-44.71-25.81-73.48-59.68-64.26-75.65,9.22-15.97,52.94-7.99,97.65,17.83,34.09,19.68,58.91,44.04,64.7,61.58"/>
    <path class="cls-3" d="M129.67,136.1c4.95,0,8.96,4.01,8.96,8.96s-4.01,8.96-8.96,8.96-8.96-4.01-8.96-8.96,4.01-8.96,8.96-8.96h0Z"/>
    <path class="cls-3" d="M103.56,261.57c4.95,0,8.96,4.01,8.96,8.96s-4.01,8.96-8.96,8.96-8.96-4.01-8.96-8.96,4.01-8.96,8.96-8.96h0Z"/>
    <path class="cls-3" d="M235.21,248.34c4.95,0,8.96,4.01,8.96,8.96s-4.01,8.96-8.96,8.96-8.96-4.01-8.96-8.96,4.01-8.96,8.96-8.96h0Z"/>
    <path class="cls-3" d="M151.84,200.57c8.52,0,15.42,6.9,15.42,15.42s-6.9,15.42-15.42,15.42-15.42-6.9-15.42-15.42,6.9-15.42,15.42-15.42h0Z"/>
  </g>
</svg>