<?xml version="1.0" encoding="utf-8"?>
<!-- Generator: Adobe Illustrator 25.4.1, SVG Export Plug-In . SVG Version: 6.00 Build 0)  -->
<svg version="1.1" id="レイヤー_1" xmlns="http://www.w3.org/2000/svg" xmlns:xlink="http://www.w3.org/1999/xlink" x="0px"
	 y="0px" viewBox="0 0 43.7 50.1" style="enable-background:new 0 0 43.7 50.1;" xml:space="preserve">
<style type="text/css">
	.st0{fill:none;stroke:#1F1F1F;stroke-width:2;stroke-miterlimit:10;}
	.st1{fill:none;stroke:#1F1F1F;stroke-width:6;stroke-linecap:round;stroke-miterlimit:10;}
	.st2{fill:none;stroke:#1F1F1F;stroke-width:5;stroke-miterlimit:10;}
</style>
<path class="st0" d="M3.3,22.6c2.7,7.9,11.3,12.2,19.3,9.5s12.2-11.3,9.5-19.3S20.7,0.6,12.8,3.3c0,0,0,0,0,0
	C4.9,6,0.6,14.6,3.3,22.6C3.3,22.6,3.3,22.6,3.3,22.6"/>
<line class="st1" x1="40.7" y1="47.1" x2="28" y2="30.9"/>
<path class="st2" d="M3.3,22.6c2.7,7.9,11.3,12.2,19.3,9.5s12.2-11.3,9.5-19.3S20.7,0.6,12.8,3.3c0,0,0,0,0,0
	C4.9,6,0.6,14.6,3.3,22.6C3.3,22.6,3.3,22.6,3.3,22.6z"/>
</svg>
