<?xml version="1.0" encoding="utf-8"?>
<!-- Generator: Adobe Illustrator 25.4.1, SVG Export Plug-In . SVG Version: 6.00 Build 0)  -->
<svg version="1.1" id="レイヤー_1" xmlns="http://www.w3.org/2000/svg" xmlns:xlink="http://www.w3.org/1999/xlink" x="0px"
	 y="0px" viewBox="0 0 585.7 833" style="enable-background:new 0 0 585.7 833;" xml:space="preserve">
<g>
	
		<image style="overflow:visible;enable-background:new    ;" width="1771" height="2560" xlink:href="9BBF7D0F838129AE.jpg"  transform="matrix(0.1653 0 0 0.1628 292.83 416.5)">
	</image>
	
		<image style="overflow:visible;enable-background:new    ;" width="911" height="1317" xlink:href="9BBF7D0F838129B2.jpg"  transform="matrix(0.3214 0 0 0.316 0 -0.155)">
	</image>
	
		<image style="overflow:visible;enable-background:new    ;" width="1104" height="1494" xlink:href="9BBF7D0F838129B5.jpg"  transform="matrix(0.2663 0 0 0.2787 0 416.575)">
	</image>
	
		<image style="overflow:visible;enable-background:new    ;" width="981" height="1467" xlink:href="9BBF7D0F838129B6.jpg"  transform="matrix(0.2973 0 0 0.2837 294 -0.155)">
	</image>
	<g>
		<path d="M294.5,417h-295V-0.6h295V417z M0.5,416h293V0.4H0.5V416z"/>
	</g>
	<g>
		<path d="M586.2,417H293.5V-0.6h292.7V417z M294.5,416h290.7V0.4H294.5V416z"/>
	</g>
	<g>
		<path d="M294.5,833.7h-295V416h295V833.7z M0.5,832.7h293V417H0.5V832.7z"/>
	</g>
	<g>
		<path d="M586.2,833.7H293.5V416h292.7V833.7z M294.5,832.7h290.7V417H294.5V832.7z"/>
	</g>
</g>
</svg>
