<?xml version="1.0" encoding="UTF-8"?>
<svg id="_イヤー_1" data-name="レイヤー 1" xmlns="http://www.w3.org/2000/svg" viewBox="0 0 313.33 407">
  <defs>
    <style>
      .cls-1 {
        font-family: ToppanBunkyuMidashiMinchoStdN-ExtraBold-83pv-RKSJ-H, Toppan Bunkyu Midashi Mincho;
        font-size: 48px;
        isolation: isolate;
      }

      .cls-2 {
        stroke-miterlimit: 10;
        stroke-width: 2px;
      }

      .cls-2, .cls-3 {
        fill: none;
        stroke: #1f1f1f;
      }

      .cls-3 {
        stroke-linecap: round;
        stroke-linejoin: round;
        stroke-width: 7px;
      }
    </style>
  </defs>
  <text class="cls-1" transform="translate(88.8 72.5)"><tspan x="0" y="0">戦略史</tspan></text>
  <rect class="cls-2" x="1" y="1" width="311.33" height="405"/>
  <path class="cls-3" d="M116.85,303.92c6.09-3.91,15.75-14.67,15.75-29.48,0-23.34-15.55-27.23-15.55-50.56,0-40.11,28.68-50.56,54.45-50.56,21.22,0,34.53,7.36,40.52,20.69m-9.87,88.46c-1.75,7.66-1.45,15.65,.87,23.16m-39.3-89.53c-6.45,0-11.67,5.21-11.68,11.66,0,6.45,5.21,11.67,11.66,11.68,6.44,0,11.67-5.21,11.68-11.65,.02-6.44-5.19-11.67-11.63-11.69-.01,0-.03,0-.04,0h0Zm11,15.56h59c-2.18-21.64-13.28-30.51-13.28-30.51l-48.9,18m-2.81,19.18l16.7,25.32s19.21,8.75,38.9,16.77c11.52-11.63,17.81-26.89,19.92-48.76h-10.53m-2.28-11.67h-17.17m-18.69,22.71l-9.27,21.42m25.8-20.45l-11.52,26.63m28.08-25.71l-13.82,31.89m-58.34-113.36c-3.66-11.33-26.15-42.06-73.22-25.79,5.84,1.57,12.36,3.78,16.73,7.16-28.36,2.74-37.43,27.37-26.38,66.51,1.75-7.22,5.86-14.78,8.47-17.39-4,18.6,10.88,33.58,9.29,53.31,10.08-7.48,17.86-19.15,10.08-42.49s3.89-46.67,29-34.93"/>
</svg>