<?xml version="1.0" encoding="UTF-8"?>
<svg id="_イヤー_1" data-name="レイヤー 1" xmlns="http://www.w3.org/2000/svg" viewBox="0 0 313.33 407">
  <defs>
    <style>
      .cls-1 {
        fill: #1f1f1f;
      }

      .cls-2 {
        letter-spacing: -.37em;
      }

      .cls-3 {
        font-family: ToppanBunkyuMidashiMinchoStdN-ExtraBold-83pv-RKSJ-H, Toppan Bunkyu Midashi Mincho;
        font-size: 48px;
        isolation: isolate;
      }

      .cls-4 {
        letter-spacing: -.21em;
      }

      .cls-5 {
        fill: none;
        stroke: #1f1f1f;
        stroke-miterlimit: 10;
        stroke-width: 2px;
      }

      .cls-6 {
        letter-spacing: -.2em;
      }

      .cls-7 {
        letter-spacing: -.04em;
      }

      .cls-8 {
        letter-spacing: -.22em;
      }

      .cls-9 {
        letter-spacing: -.1em;
      }
    </style>
  </defs>
  <text class="cls-3" transform="translate(37.55 72.5)"><tspan class="cls-4" x="0" y="0">テ</tspan><tspan class="cls-2" x="38.11" y="0">ク</tspan><tspan class="cls-8" x="68.35" y="0">ノ</tspan><tspan class="cls-6" x="105.7" y="0">ロ</tspan><tspan class="cls-9" x="144" y="0">ジ</tspan><tspan class="cls-7" x="187.01" y="0">ー</tspan></text>
  <rect class="cls-5" x="1" y="1" width="311.33" height="405"/>
  <g>
    <path class="cls-1" d="M75.68,258c0,5.34,1.09,10.44,3.05,15.08,2.94,6.96,7.85,12.87,14.03,17.04,6.18,4.18,13.65,6.62,21.66,6.62,1.86,0,3.37-1.51,3.37-3.37s-1.5-3.37-3.37-3.37c-4.43,0-8.63-.9-12.45-2.51-5.74-2.43-10.64-6.49-14.09-11.6-3.45-5.11-5.46-11.26-5.47-17.89,0-1.86-1.5-3.37-3.37-3.37s-3.36,1.51-3.36,3.37h0Z"/>
    <path class="cls-1" d="M87.05,258c0,3.77,.76,7.38,2.15,10.65,2.08,4.91,5.55,9.09,9.91,12.04,4.37,2.95,9.65,4.68,15.3,4.67,1.86,0,3.37-1.5,3.37-3.37s-1.5-3.36-3.37-3.36c-2.86,0-5.57-.58-8.03-1.62-3.7-1.56-6.86-4.18-9.08-7.48-2.23-3.29-3.52-7.25-3.52-11.53,0-1.86-1.51-3.37-3.37-3.37s-3.37,1.51-3.37,3.37h0Z"/>
    <path class="cls-1" d="M98.42,258c0,2.2,.45,4.31,1.26,6.23,1.22,2.88,3.24,5.31,5.79,7.04,2.55,1.72,5.65,2.74,8.95,2.73,1.86,0,3.37-1.51,3.37-3.37s-1.5-3.37-3.37-3.37c-1.29,0-2.5-.26-3.6-.73-1.66-.7-3.08-1.88-4.08-3.36-1-1.48-1.58-3.25-1.58-5.18s-1.51-3.37-3.37-3.37-3.37,1.51-3.37,3.37h0Z"/>
    <path class="cls-1" d="M131.43,214.15l2.38-2.38-56.51-56.51,18.87-18.87,54.14,54.14-21.26,21.25,2.38,2.38,2.38-2.38-2.38,2.38,2.38,2.38,23.63-23.63c.62-.62,.98-1.49,.98-2.38s-.36-1.75-.98-2.38l-58.9-58.9c-.63-.63-1.49-.99-2.38-.99s-1.75,.36-2.38,.99l-23.63,23.63c-1.31,1.32-1.31,3.44,0,4.76l58.89,58.9c.63,.63,1.49,.99,2.38,.99s1.75-.36,2.38-.99l-2.38-2.38h0Z"/>
    <path class="cls-1" d="M149.57,196l-58.9-58.9c-1.31-1.31-3.44-1.31-4.76,0-1.32,1.32-1.32,3.45,0,4.76l58.9,58.9c1.31,1.31,3.44,1.31,4.76,0,1.31-1.32,1.31-3.45,0-4.76"/>
    <path class="cls-1" d="M78.01,149.76l58.9,58.9c1.32,1.31,3.45,1.31,4.76,0,1.31-1.31,1.31-3.45,0-4.76l-58.9-58.9c-1.32-1.32-3.45-1.32-4.76,0s-1.31,3.45,0,4.76"/>
    <path class="cls-1" d="M123.23,158.68l-23.63,23.63c-1.31,1.31-1.31,3.45,0,4.76,1.31,1.31,3.45,1.31,4.76,0l23.63-23.63c1.32-1.32,1.32-3.45,0-4.76-1.31-1.32-3.44-1.32-4.76,0"/>
    <path class="cls-1" d="M137.95,173.41l-23.63,23.63c-1.31,1.31-1.31,3.45,0,4.76,1.31,1.32,3.44,1.32,4.76,0l23.63-23.63c1.31-1.31,1.31-3.45,0-4.76-1.32-1.31-3.45-1.31-4.76,0"/>
    <path class="cls-1" d="M107.66,143.11l-23.63,23.63c-1.32,1.32-1.32,3.45,0,4.76,1.31,1.32,3.45,1.32,4.76,0l23.63-23.63c1.31-1.31,1.31-3.45,0-4.76-1.32-1.31-3.45-1.31-4.76,0"/>
    <path class="cls-1" d="M140.86,204.71l6.92,6.92c1.32,1.31,3.45,1.31,4.76,0,1.32-1.31,1.32-3.45,0-4.76l-6.91-6.92c-1.32-1.31-3.45-1.31-4.76,0-1.31,1.32-1.31,3.45,0,4.76"/>
    <path class="cls-1" d="M158.27,240.99l-2.38,2.38,58.9,58.9c.63,.62,1.49,.98,2.38,.98s1.75-.36,2.38-.98l23.63-23.63c.63-.63,.99-1.49,.99-2.38s-.36-1.75-.99-2.38l-58.89-58.9c-.63-.62-1.49-.98-2.38-.98s-1.75,.36-2.38,.98l-23.63,23.63c-1.31,1.32-1.31,3.45,0,4.76l2.38-2.38,2.38,2.38,21.25-21.26,54.14,54.14-18.87,18.87-56.51-56.52-2.38,2.38,2.38,2.38-2.38-2.38h0Z"/>
    <path class="cls-1" d="M171.65,227.6l58.9,58.89c1.32,1.31,3.45,1.31,4.76,0,1.32-1.31,1.32-3.44,0-4.76l-58.9-58.9c-1.32-1.31-3.45-1.31-4.76,0-1.31,1.31-1.31,3.45,0,4.76"/>
    <path class="cls-1" d="M227.41,289.64l-58.9-58.89c-1.31-1.31-3.44-1.31-4.76,0-1.32,1.32-1.32,3.44,0,4.76l58.89,58.9c1.31,1.31,3.45,1.31,4.76,0,1.32-1.31,1.32-3.45,0-4.76"/>
    <path class="cls-1" d="M208.97,244.42l-23.63,23.63c-1.32,1.32-1.32,3.44,0,4.76,1.31,1.32,3.44,1.32,4.76,0l23.63-23.63c1.31-1.31,1.31-3.45,0-4.76-1.32-1.31-3.45-1.31-4.76,0"/>
    <path class="cls-1" d="M194.25,229.7l-23.63,23.63c-1.31,1.31-1.31,3.45,0,4.76,1.32,1.31,3.45,1.31,4.76,0l23.63-23.63c1.31-1.31,1.31-3.45,0-4.76-1.32-1.32-3.44-1.32-4.76,0"/>
    <path class="cls-1" d="M224.54,260l-23.63,23.63c-1.31,1.31-1.31,3.45,0,4.76,1.32,1.31,3.45,1.31,4.76,0l23.63-23.63c1.32-1.31,1.32-3.45,0-4.76-1.31-1.32-3.45-1.32-4.76,0"/>
    <path class="cls-1" d="M172.47,226.79l-6.92-6.91c-1.32-1.31-3.45-1.31-4.76,0-1.32,1.32-1.32,3.45,0,4.76l6.91,6.92c1.32,1.31,3.45,1.31,4.76,0,1.31-1.31,1.31-3.45,0-4.76"/>
    <path class="cls-1" d="M139.93,237.76l2.38-2.38-5.28-5.28c-.21-.21-.36-.44-.46-.69-.1-.25-.15-.52-.15-.79s.05-.54,.15-.79c.1-.25,.25-.48,.46-.69l26.44-26.44c.44-.44,.92-.75,1.45-.96,.53-.21,1.09-.32,1.65-.32s1.13,.11,1.65,.32c.53,.22,1.01,.53,1.45,.96l2.06,2.06c.44,.44,.75,.92,.97,1.45,.21,.53,.32,1.09,.32,1.65s-.11,1.13-.32,1.65c-.22,.53-.53,1.01-.97,1.45l-26.44,26.44c-.21,.21-.44,.36-.69,.46-.25,.1-.52,.15-.79,.15s-.54-.05-.79-.15c-.25-.1-.48-.25-.69-.46l-2.38,2.38-2.38,2.38c.86,.86,1.86,1.51,2.93,1.94,1.06,.43,2.19,.65,3.32,.65s2.26-.22,3.32-.65c1.07-.43,2.07-1.08,2.93-1.94l26.44-26.44c1.08-1.08,1.9-2.34,2.44-3.68,.54-1.34,.81-2.76,.81-4.18s-.27-2.84-.81-4.18c-.54-1.34-1.36-2.6-2.44-3.68l-2.06-2.06c-1.08-1.08-2.34-1.9-3.68-2.44-1.34-.54-2.76-.81-4.18-.81s-2.84,.27-4.18,.81c-1.34,.54-2.6,1.36-3.68,2.44l-26.45,26.44c-.85,.86-1.51,1.86-1.94,2.93-.43,1.06-.65,2.19-.65,3.32s.22,2.26,.65,3.32c.43,1.07,1.09,2.07,1.94,2.93l5.28,5.28,2.38-2.38h0Z"/>
    <path class="cls-1" d="M179.22,207.91l5.09-5.08c.9-.9,1.58-1.96,2.04-3.08,.46-1.12,.68-2.31,.68-3.5s-.22-2.37-.68-3.49c-.45-1.12-1.14-2.18-2.04-3.08l-1.58-1.57c-.9-.9-1.96-1.59-3.07-2.04-1.12-.45-2.31-.68-3.5-.68s-2.37,.23-3.5,.68c-1.12,.45-2.18,1.14-3.08,2.04l-5.08,5.08c-1.32,1.31-1.32,3.45,0,4.76,1.32,1.31,3.45,1.31,4.76,0l5.08-5.08c.26-.26,.54-.44,.84-.56,.31-.13,.64-.19,.97-.19s.66,.06,.96,.19c.31,.13,.59,.31,.85,.56l1.57,1.58c.26,.26,.44,.54,.56,.84,.13,.31,.19,.64,.19,.96s-.06,.66-.19,.97c-.12,.31-.31,.59-.56,.84l-5.08,5.08c-1.32,1.32-1.32,3.45,0,4.76,1.31,1.32,3.45,1.32,4.76,0h0Z"/>
    <path class="cls-1" d="M149.12,256.72l2.38,2.38c.63-.62,1.08-1.4,1.34-2.17,.26-.77,.35-1.52,.35-2.25,0-.85-.13-1.67-.32-2.49-.35-1.43-.93-2.88-1.69-4.4-1.15-2.28-2.73-4.73-4.67-7.28-1.94-2.54-4.24-5.17-6.84-7.77-3.96-3.96-7.99-7.23-11.68-9.58-1.85-1.18-3.61-2.12-5.29-2.81-.84-.34-1.67-.62-2.48-.82-.82-.2-1.64-.32-2.49-.32-.72,0-1.48,.09-2.25,.35-.77,.26-1.54,.7-2.17,1.34h0c-.63,.62-1.08,1.4-1.34,2.16-.26,.77-.35,1.53-.35,2.25,0,.85,.12,1.67,.32,2.49,.35,1.43,.93,2.88,1.7,4.4,1.15,2.28,2.73,4.73,4.67,7.28,1.94,2.54,4.24,5.17,6.84,7.77,3.96,3.96,7.99,7.23,11.68,9.58,1.85,1.18,3.61,2.12,5.29,2.81,.84,.34,1.66,.62,2.48,.82,.82,.2,1.63,.32,2.48,.32,.73,0,1.48-.09,2.25-.35,.76-.26,1.54-.7,2.17-1.33h0l-2.38-2.38-2.38-2.38,.79,.78-.36-1.06c-.09,.03-.27,.12-.43,.28l.79,.78-.36-1.06,.15,.45-.11-.46h-.04l.15,.46-.11-.46,.04,.17-.03-.17h0l.04,.17-.03-.17h0s-.05,0-.13,0c-.17,0-.48-.03-.9-.13-.74-.18-1.77-.57-2.96-1.16-1.79-.9-3.94-2.27-6.22-4.01-2.28-1.74-4.7-3.85-7.09-6.24-3.65-3.64-6.64-7.36-8.66-10.53-1.01-1.58-1.77-3.03-2.25-4.21-.24-.59-.41-1.11-.51-1.53s-.13-.74-.13-.9c0-.07,0-.11,0-.13h0l-.29-.06,.28,.09v-.04l-.28-.05,.28,.09-1.05-.33,.77,.77c.17-.16,.26-.36,.28-.44l-1.05-.33,.77,.77h0l-.79-.79,.36,1.06c.08-.03,.27-.12,.43-.28l-.79-.79,.36,1.06-.15-.45,.11,.47h.04l-.15-.47,.11,.47-.04-.18,.04,.18h0l-.04-.18,.04,.18h0s.06,0,.13,0c.17,0,.48,.03,.9,.13,.74,.17,1.77,.56,2.96,1.16,1.79,.9,3.94,2.27,6.22,4.01,2.28,1.74,4.7,3.85,7.09,6.24,3.64,3.64,6.64,7.36,8.66,10.53,1.01,1.58,1.77,3.03,2.25,4.21,.24,.59,.41,1.11,.51,1.53,.1,.42,.13,.74,.13,.9,0,.07,0,.11,0,.13h0l.29,.06-.28-.09v.04l.28,.05-.28-.09,1.05,.33-.77-.77c-.17,.16-.26,.36-.28,.44l1.05,.33-.77-.77h0l2.38,2.38h0Z"/>
    <path class="cls-1" d="M132.7,241.26l-4.6,3.05,3.05-4.6c1.03-1.55,.61-3.64-.94-4.66-1.55-1.03-3.64-.61-4.66,.94l-12.27,18.49c-.89,1.34-.71,3.11,.42,4.24,1.14,1.14,2.9,1.31,4.24,.43l18.49-12.28c1.55-1.03,1.97-3.11,.94-4.66-1.03-1.55-3.12-1.97-4.67-.94h0Z"/>
    <path class="cls-1" d="M118.27,258.53l-2.38-2.38,.18,.18-.1-.24-.09,.06,.18,.18-.1-.24,.1,.24v-.26l-.1,.02,.1,.24v0l.09-.24-.09-.02v.26l.09-.24-.1,.25,.19-.19-.09-.06-.1,.25,.19-.19h0l-.19,.18,.24-.1-.05-.09-.19,.18,.24-.1-.24,.1h.26l-.02-.1-.24,.1h0l.24,.09,.02-.09h-.26l.24,.09-.24-.1,.18,.19,.06-.09-.24-.1,.18,.19h0l-.19-.19,.1,.24,.09-.05-.19-.19,.1,.24-.09-.24v.26l.09-.02-.09-.24v0l-.1,.23,.1,.02v-.26l-.1,.23,.1-.24-.18,.19,.09,.05,.1-.24-.18,.19,.18-.19-.24,.1,.06,.09,.18-.19-.24,.1,.24-.09h-.26l.02,.09,.24-.09h0l-.24-.1-.02,.1h.26l-.24-.1,.24,.1-.18-.18-.06,.09,.24,.1-.18-.18,2.38,2.38,2.38,2.38c.63-.62,1.1-1.36,1.42-2.14s.48-1.61,.48-2.43-.16-1.65-.48-2.44c-.32-.78-.79-1.52-1.42-2.14-.62-.62-1.36-1.1-2.14-1.42-.78-.31-1.61-.47-2.43-.47s-1.65,.16-2.44,.47c-.78,.32-1.52,.8-2.14,1.42h0c-.62,.62-1.1,1.36-1.42,2.14-.31,.79-.47,1.61-.47,2.44s.16,1.65,.47,2.43c.32,.78,.8,1.52,1.42,2.14h0c.62,.63,1.36,1.11,2.14,1.42,.78,.32,1.61,.48,2.44,.48s1.65-.16,2.43-.48c.78-.31,1.52-.79,2.14-1.42l-2.38-2.38h0Z"/>
  </g>
</svg>